<?xml version="1.0" encoding="UTF-8" standalone="no"?>
<!DOCTYPE svg PUBLIC "-//W3C//DTD SVG 1.1//EN" "http://www.w3.org/Graphics/SVG/1.1/DTD/svg11.dtd">
<svg width="100%" height="100%" viewBox="0 0 119 35" version="1.1" xmlns="http://www.w3.org/2000/svg" xmlns:xlink="http://www.w3.org/1999/xlink" xml:space="preserve" xmlns:serif="http://www.serif.com/" style="fill-rule:evenodd;clip-rule:evenodd;stroke-linejoin:round;stroke-miterlimit:2;">
    <g id="_Group_">
        <g id="_Compound_Path_" transform="matrix(1,0,0,1,-332.253,-285.395)">
            <path d="M442.882,285.395L340.361,285.395C340.049,285.395 339.741,285.395 339.43,285.397C339.17,285.399 338.911,285.404 338.649,285.408C338.077,285.415 337.508,285.465 336.944,285.558C336.382,285.653 335.837,285.833 335.328,286.091C334.82,286.352 334.355,286.69 333.951,287.094C333.546,287.496 333.207,287.962 332.949,288.472C332.691,288.982 332.512,289.527 332.418,290.091C332.323,290.653 332.272,291.223 332.266,291.793C332.258,292.054 332.257,292.316 332.253,292.576L332.253,312.233C332.257,312.497 332.258,312.752 332.266,313.017C332.272,313.587 332.323,314.156 332.418,314.719C332.512,315.283 332.691,315.829 332.949,316.338C333.207,316.847 333.546,317.311 333.951,317.711C334.354,318.117 334.818,318.455 335.328,318.714C335.837,318.972 336.382,319.153 336.944,319.25C337.508,319.343 338.078,319.393 338.649,319.4C338.911,319.406 339.17,319.409 339.43,319.409C339.741,319.411 340.049,319.411 340.361,319.411L442.882,319.411C443.188,319.411 443.498,319.411 443.804,319.409C444.063,319.409 444.329,319.406 444.588,319.4C445.158,319.393 445.726,319.343 446.289,319.25C446.853,319.152 447.4,318.972 447.911,318.714C448.42,318.455 448.885,318.117 449.287,317.711C449.692,317.309 450.031,316.846 450.291,316.338C450.548,315.829 450.726,315.282 450.818,314.719C450.913,314.156 450.966,313.587 450.976,313.017C450.979,312.752 450.979,312.497 450.979,312.233C450.986,311.924 450.986,311.616 450.986,311.302L450.986,293.505C450.986,293.193 450.986,292.884 450.979,292.576C450.979,292.316 450.979,292.054 450.976,291.793C450.966,291.223 450.913,290.654 450.818,290.091C450.726,289.528 450.548,288.982 450.291,288.472C449.767,287.449 448.934,286.617 447.911,286.091C447.4,285.834 446.853,285.654 446.289,285.558C445.727,285.464 445.158,285.414 444.588,285.408C444.329,285.404 444.063,285.399 443.804,285.397C443.498,285.395 443.188,285.395 442.882,285.395L442.882,285.395Z" style="fill:rgb(166,166,166);fill-rule:nonzero;"/>
        </g>
        <g id="_Path_" transform="matrix(1,0,0,1,-332.253,-285.395)">
            <path d="M442.882,286.095L443.799,286.097C444.008,286.098 444.221,286.102 444.431,286.105L444.571,286.108C445.106,286.114 445.64,286.161 446.168,286.248C446.663,286.332 447.143,286.489 447.592,286.714C448.483,287.172 449.208,287.897 449.666,288.787C449.893,289.238 450.049,289.721 450.13,290.219C450.217,290.742 450.266,291.271 450.276,291.802C450.279,292.06 450.279,292.319 450.279,292.591C450.286,292.895 450.286,293.198 450.286,293.505L450.286,311.302C450.286,311.611 450.286,311.914 450.279,312.233C450.279,312.494 450.279,312.747 450.276,312.992C450.266,313.532 450.217,314.07 450.128,314.602C450.048,315.094 449.893,315.571 449.67,316.016C449.442,316.461 449.144,316.867 448.789,317.219C448.44,317.571 448.037,317.865 447.594,318.089C447.144,318.317 446.662,318.476 446.164,318.561C445.638,318.647 445.106,318.694 444.572,318.701C444.318,318.706 444.058,318.709 443.8,318.709C443.496,318.711 443.186,318.711 442.882,318.711L340.361,318.711C340.05,318.711 339.744,318.711 339.43,318.709C339.175,318.709 338.922,318.706 338.668,318.701C338.132,318.694 337.598,318.647 337.069,318.561C336.573,318.476 336.093,318.317 335.645,318.089C335.199,317.863 334.793,317.567 334.442,317.212C334.089,316.864 333.796,316.461 333.572,316.019C333.345,315.57 333.188,315.09 333.107,314.594C333.019,314.065 332.972,313.531 332.965,312.996C332.96,312.819 332.958,312.647 332.956,312.473L332.953,312.233L332.953,293.505L332.953,292.588L332.956,292.334C332.958,292.161 332.96,291.988 332.965,291.811C332.972,291.275 333.02,290.74 333.108,290.211C333.19,289.716 333.347,289.236 333.574,288.789C333.798,288.344 334.093,287.939 334.447,287.588C334.798,287.237 335.202,286.942 335.645,286.715C336.093,286.489 336.573,286.331 337.068,286.247C337.594,286.161 338.126,286.114 338.66,286.108L338.829,286.105C339.032,286.102 339.232,286.098 339.434,286.097L340.361,286.095L442.882,286.095" style="fill-rule:nonzero;"/>
        </g>
        <g transform="matrix(0.0584139,0,0,0.0584139,59.3665,18.0079)">
            <g transform="matrix(1,0,0,1,-593.75,-179.167)">
                <g transform="matrix(4.16667,0,0,4.16667,0,0)">
                    <path d="M176.711,67.292C160.162,79.504 136.168,86 115.508,86C86.55,86 60.476,75.297 40.743,57.479C39.194,56.081 40.576,54.168 42.438,55.253C63.727,67.641 90.053,75.102 117.246,75.102C135.589,75.102 155.753,71.295 174.306,63.426C177.104,62.239 179.45,65.27 176.711,67.292Z" style="fill:white;"/>
                    <path d="M183.599,59.43C181.481,56.719 169.605,58.145 164.271,58.784C162.655,58.977 162.404,57.567 163.861,56.543C173.334,49.889 188.856,51.811 190.66,54.038C192.479,56.286 190.185,71.848 181.306,79.276C179.94,80.418 178.642,79.809 179.247,78.299C181.244,73.311 185.717,62.141 183.599,59.43Z" style="fill:white;"/>
                    <path d="M164.647,9.539L164.647,3.073C164.651,2.089 165.393,1.433 166.286,1.435L195.264,1.432C196.19,1.433 196.934,2.107 196.936,3.065L196.934,8.61C196.927,9.54 196.144,10.754 194.752,12.681L179.742,34.112C185.314,33.981 191.208,34.814 196.271,37.661C197.412,38.302 197.718,39.253 197.808,40.185L197.808,47.083C197.808,48.034 196.768,49.133 195.675,48.561C186.755,43.889 174.919,43.378 165.057,48.618C164.049,49.155 162.994,48.071 162.994,47.12L162.994,40.562C162.994,39.513 163.014,37.717 164.072,36.118L181.463,11.169L166.321,11.166C165.396,11.166 164.653,10.507 164.647,9.539Z" style="fill:white;"/>
                    <path d="M58.943,49.921L50.128,49.921C49.289,49.866 48.618,49.235 48.55,48.43L48.556,3.184C48.556,2.278 49.318,1.555 50.257,1.555L58.467,1.552C59.327,1.597 60.016,2.247 60.071,3.072L60.071,8.979L60.236,8.979C62.376,3.266 66.408,0.6 71.838,0.6C77.352,0.6 80.808,3.266 83.278,8.979C85.417,3.266 90.272,0.6 95.457,0.6C99.16,0.6 103.192,2.124 105.661,5.551C108.459,9.36 107.884,14.882 107.884,19.738L107.877,48.292C107.877,49.196 107.115,49.921 106.177,49.921L97.371,49.921C96.486,49.864 95.788,49.163 95.788,48.296L95.786,24.309C95.786,22.404 95.951,17.644 95.539,15.834C94.88,12.788 92.906,11.931 90.355,11.931C88.215,11.931 85.993,13.359 85.087,15.644C84.182,17.929 84.265,21.737 84.265,24.309L84.265,48.292C84.265,49.196 83.503,49.921 82.565,49.921L73.759,49.921C72.875,49.864 72.176,49.163 72.176,48.296L72.168,24.309C72.168,19.262 72.991,11.835 66.737,11.835C60.4,11.835 60.647,19.072 60.647,24.309L60.643,48.292C60.644,49.196 59.882,49.921 58.943,49.921Z" style="fill:white;"/>
                    <path d="M221.963,9.836C215.461,9.836 215.05,18.69 215.05,24.213C215.05,29.735 214.968,41.542 221.881,41.542C228.712,41.542 229.04,32.021 229.04,26.213C229.04,22.404 228.876,17.834 227.724,14.216C226.735,11.074 224.76,9.836 221.963,9.836ZM221.881,0.6C234.966,0.6 242.042,11.835 242.042,26.117C242.042,39.923 234.226,50.874 221.881,50.874C209.043,50.874 202.048,39.638 202.048,25.642C202.048,11.55 209.125,0.6 221.881,0.6Z" style="fill:white;"/>
                    <path d="M259.01,49.921L250.228,49.921C249.345,49.864 248.646,49.163 248.646,48.296L248.632,3.031C248.706,2.204 249.437,1.555 250.325,1.555L258.502,1.552C259.272,1.592 259.907,2.118 260.069,2.82L260.069,9.741L260.234,9.741C262.704,3.552 266.159,0.6 272.249,0.6C276.198,0.6 280.067,2.028 282.536,5.932C284.841,9.55 284.841,15.644 284.841,20.024L284.841,48.495C284.741,49.297 284.022,49.921 283.151,49.921L274.313,49.921C273.497,49.868 272.839,49.268 272.743,48.495L272.743,23.928C272.743,18.977 273.319,11.74 267.229,11.74C265.089,11.74 263.114,13.168 262.127,15.358C260.894,18.119 260.728,20.881 260.728,23.928L260.728,48.292C260.712,49.196 259.95,49.921 259.01,49.921Z" style="fill:white;"/>
                    <path d="M150.435,49.807C149.851,50.331 149.01,50.366 148.352,50.012C145.424,47.579 144.899,46.454 143.299,44.137C138.459,49.067 135.031,50.546 128.764,50.546C121.342,50.546 115.568,45.965 115.568,36.805C115.568,29.648 119.444,24.782 124.97,22.397C129.753,20.297 136.434,19.916 141.547,19.343L141.547,18.198C141.547,16.099 141.712,13.617 140.475,11.805C139.402,10.182 137.341,9.514 135.526,9.514C132.164,9.514 129.175,11.237 128.44,14.808C128.287,15.603 127.708,16.388 126.909,16.429L118.364,15.504C117.643,15.341 116.841,14.763 117.049,13.661C119.013,3.294 128.373,0.163 136.764,0.163C141.052,0.163 146.66,1.308 150.041,4.552C154.33,8.56 153.917,13.904 153.917,19.725L153.917,33.459C153.917,37.591 155.634,39.403 157.245,41.63C157.808,42.432 157.935,43.386 157.216,43.971C155.415,45.481 152.216,48.26 150.455,49.827L150.435,49.807ZM141.547,28.313C141.547,31.748 141.629,34.61 139.897,37.664C138.495,40.146 136.269,41.672 133.794,41.672C130.412,41.672 128.434,39.095 128.434,35.278C128.434,27.77 135.169,26.404 141.547,26.404L141.547,28.313Z" style="fill:white;"/>
                    <path d="M34.866,49.807C34.282,50.331 33.44,50.366 32.783,50.012C29.854,47.579 29.33,46.454 27.729,44.137C22.89,49.067 19.462,50.546 13.195,50.546C5.772,50.546 0,45.965 0,36.805C0,29.648 3.876,24.782 9.401,22.397C14.184,20.297 20.865,19.916 25.977,19.343L25.977,18.198C25.977,16.099 26.142,13.617 24.906,11.805C23.834,10.182 21.771,9.514 19.958,9.514C16.595,9.514 13.605,11.237 12.872,14.808C12.718,15.603 12.139,16.388 11.339,16.429L2.795,15.504C2.074,15.341 1.271,14.763 1.48,13.661C3.443,3.294 12.804,0.163 21.194,0.163C25.483,0.163 31.09,1.308 34.472,4.552C38.76,8.56 38.348,13.904 38.348,19.725L38.348,33.459C38.348,37.591 40.064,39.403 41.675,41.63C42.238,42.432 42.365,43.386 41.647,43.971C39.846,45.481 36.646,48.26 34.886,49.827L34.866,49.807ZM25.977,28.313C25.977,31.748 26.06,34.61 24.328,37.664C22.926,40.146 20.7,41.672 18.225,41.672C14.844,41.672 12.865,39.095 12.865,35.278C12.865,27.77 19.6,26.404 25.977,26.404L25.977,28.313Z" style="fill:white;"/>
                </g>
            </g>
        </g>
    </g>
</svg>
